<svg width="657.81875px" height="143.6px" xmlns="http://www.w3.org/2000/svg" viewBox="-78.90937500000001 3.200000000000003 657.81875 143.6" style="background: rgba(0, 0, 0, 0);" preserveAspectRatio="xMidYMid"><defs><filter id="editing-extrude-glow"><feFlood flood-color="rgba(0%,0%,0%,0)" result="flood-1"></feFlood><feMorphology operator="erode" radius="1" in="SourceAlpha" result="erode"></feMorphology><feComposite operator="in" in="flood-1" in2="erode" result="comp1"></feComposite><feConvolveMatrix order="0,0" divisor="1" in="comp1" result="convolve" kernelMatrix=""></feConvolveMatrix><feOffset dx="0" dy="0" in="convolve" result="extrude"></feOffset><feComposite operator="in" in="flood-1" in2="extrude" result="comp-extrude"></feComposite><feFlood flood-color="rgba(0%,0%,0%,0)" result="flood-2"></feFlood><feComposite operator="in" in="flood-2" in2="SourceAlpha" result="comp2"></feComposite><feMorphology operator="dilate" radius="1" in="comp2" result="dilate"></feMorphology><feOffset dx="0" dy="0" in="dilate" result="offset"></feOffset><feGaussianBlur in="offset" stdDeviation="5.8" result="blur"></feGaussianBlur><feComponentTransfer in="blur" result="shadow"><feFuncA type="linear" slope="0.8" intercept="-0.2"></feFuncA></feComponentTransfer><feMerge><feMergeNode in="shadow"></feMergeNode><feMergeNode in="comp-extrude"></feMergeNode><feMergeNode in="SourceGraphic"></feMergeNode></feMerge></filter></defs><g filter="url(#editing-extrude-glow)"><g transform="translate(10.074981689453125, 101.70000267028809)">
<path d="M28.20-52.50L28.20-52.50Q38.25-52.50 43.95-47.70L43.95-47.70L43.95-47.70Q49.65-42.90 49.65-34.50L49.65-34.50L49.65-34.50Q49.65-26.10 43.95-21.34L43.95-21.34L43.95-21.34Q38.25-16.57 28.20-16.57L28.20-16.57L14.10-16.57L14.10 0L8.55 0L8.55-52.50L28.20-52.50ZM28.05-21.45L28.05-21.45Q35.85-21.45 39.98-24.86L39.98-24.86L39.98-24.86Q44.10-28.27 44.10-34.50L44.10-34.50L44.10-34.50Q44.10-40.88 39.98-44.29L39.98-44.29L39.98-44.29Q35.85-47.70 28.05-47.70L28.05-47.70L14.10-47.70L14.10-21.45L28.05-21.45ZM104.33 0L98.25 0L86.25-16.88L86.25-16.88Q84.22-16.65 82.05-16.65L82.05-16.65L67.95-16.65L67.95 0L62.40 0L62.40-52.50L82.05-52.50L82.05-52.50Q92.10-52.50 97.80-47.70L97.80-47.70L97.80-47.70Q103.50-42.90 103.50-34.50L103.50-34.50L103.50-34.50Q103.50-28.35 100.39-24.11L100.39-24.11L100.39-24.11Q97.28-19.88 91.50-18L91.50-18L104.33 0ZM81.90-21.38L81.90-21.38Q89.70-21.38 93.83-24.82L93.83-24.82L93.83-24.82Q97.95-28.27 97.95-34.50L97.95-34.50L97.95-34.50Q97.95-40.88 93.83-44.29L93.83-44.29L93.83-44.29Q89.70-47.70 81.90-47.70L81.90-47.70L67.95-47.70L67.95-21.38L81.90-21.38ZM139.57 0.45L139.57 0.45Q131.78 0.45 125.44-3.04L125.44-3.04L125.44-3.04Q119.10-6.52 115.54-12.60L115.54-12.60L115.54-12.60Q111.98-18.68 111.98-26.25L111.98-26.25L111.98-26.25Q111.98-33.82 115.54-39.90L115.54-39.90L115.54-39.90Q119.10-45.98 125.44-49.46L125.44-49.46L125.44-49.46Q131.78-52.95 139.57-52.95L139.57-52.95L139.57-52.95Q147.38-52.95 153.64-49.50L153.64-49.50L153.64-49.50Q159.90-46.05 163.50-39.94L163.50-39.94L163.50-39.94Q167.10-33.82 167.10-26.25L167.10-26.25L167.10-26.25Q167.10-18.68 163.50-12.56L163.50-12.56L163.50-12.56Q159.90-6.45 153.64-3L153.64-3L153.64-3Q147.38 0.45 139.57 0.45L139.57 0.45ZM139.57-4.50L139.57-4.50Q145.80-4.50 150.82-7.31L150.82-7.31L150.82-7.31Q155.85-10.13 158.70-15.11L158.70-15.11L158.70-15.11Q161.55-20.10 161.55-26.25L161.55-26.25L161.55-26.25Q161.55-32.40 158.70-37.39L158.70-37.39L158.70-37.39Q155.85-42.38 150.82-45.19L150.82-45.19L150.82-45.19Q145.80-48 139.57-48L139.57-48L139.57-48Q133.35-48 128.29-45.19L128.29-45.19L128.29-45.19Q123.22-42.38 120.34-37.39L120.34-37.39L120.34-37.39Q117.45-32.40 117.45-26.25L117.45-26.25L117.45-26.25Q117.45-20.10 120.34-15.11L120.34-15.11L120.34-15.11Q123.22-10.13 128.29-7.31L128.29-7.31L128.29-7.31Q133.35-4.50 139.57-4.50L139.57-4.50ZM218.55-52.50L197.55-18.15L197.55 0L192.07 0L192.07-18.15L171.07-52.50L177-52.50L195-23.02L213-52.50L218.55-52.50ZM232.72-4.80L264.30-4.80L264.30 0L227.18 0L227.18-52.50L263.18-52.50L263.18-47.70L232.72-47.70L232.72-29.02L259.88-29.02L259.88-24.30L232.72-24.30L232.72-4.80ZM300.15 0.45L300.15 0.45Q292.35 0.45 286.09-3L286.09-3L286.09-3Q279.82-6.45 276.26-12.56L276.26-12.56L276.26-12.56Q272.70-18.68 272.70-26.25L272.70-26.25L272.70-26.25Q272.70-33.82 276.26-39.94L276.26-39.94L276.26-39.94Q279.82-46.05 286.13-49.50L286.13-49.50L286.13-49.50Q292.43-52.95 300.23-52.95L300.23-52.95L300.23-52.95Q306.07-52.95 311.03-51L311.03-51L311.03-51Q315.98-49.05 319.43-45.30L319.43-45.30L315.90-41.77L315.90-41.77Q309.75-48 300.38-48L300.38-48L300.38-48Q294.15-48 289.05-45.15L289.05-45.15L289.05-45.15Q283.95-42.30 281.06-37.35L281.06-37.35L281.06-37.35Q278.18-32.40 278.18-26.25L278.18-26.25L278.18-26.25Q278.18-20.10 281.06-15.15L281.06-15.15L281.06-15.15Q283.95-10.20 289.05-7.35L289.05-7.35L289.05-7.35Q294.15-4.50 300.38-4.50L300.38-4.50L300.38-4.50Q309.82-4.50 315.90-10.80L315.90-10.80L319.43-7.27L319.43-7.27Q315.98-3.52 310.99-1.54L310.99-1.54L310.99-1.54Q306 0.45 300.15 0.45L300.15 0.45ZM341.48 0L341.48-47.70L323.03-47.70L323.03-52.50L365.48-52.50L365.48-47.70L347.03-47.70L347.03 0L341.48 0ZM397.28 0.45L397.28 0.45Q389.48 0.45 383.14-3.04L383.14-3.04L383.14-3.04Q376.80-6.52 373.24-12.60L373.24-12.60L373.24-12.60Q369.68-18.68 369.68-26.25L369.68-26.25L369.68-26.25Q369.68-33.82 373.24-39.90L373.24-39.90L373.24-39.90Q376.80-45.98 383.14-49.46L383.14-49.46L383.14-49.46Q389.48-52.95 397.28-52.95L397.28-52.95L397.28-52.95Q405.08-52.95 411.34-49.50L411.34-49.50L411.34-49.50Q417.60-46.05 421.20-39.94L421.20-39.94L421.20-39.94Q424.80-33.82 424.80-26.25L424.80-26.25L424.80-26.25Q424.80-18.68 421.20-12.56L421.20-12.56L421.20-12.56Q417.60-6.45 411.34-3L411.34-3L411.34-3Q405.08 0.45 397.28 0.45L397.28 0.45ZM397.28-4.50L397.28-4.50Q403.50-4.50 408.53-7.31L408.53-7.31L408.53-7.31Q413.55-10.13 416.40-15.11L416.40-15.11L416.40-15.11Q419.25-20.10 419.25-26.25L419.25-26.25L419.25-26.25Q419.25-32.40 416.40-37.39L416.40-37.39L416.40-37.39Q413.55-42.38 408.53-45.19L408.53-45.19L408.53-45.19Q403.50-48 397.28-48L397.28-48L397.28-48Q391.05-48 385.99-45.19L385.99-45.19L385.99-45.19Q380.93-42.38 378.04-37.39L378.04-37.39L378.04-37.39Q375.15-32.40 375.15-26.25L375.15-26.25L375.15-26.25Q375.15-20.10 378.04-15.11L378.04-15.11L378.04-15.11Q380.93-10.13 385.99-7.31L385.99-7.31L385.99-7.31Q391.05-4.50 397.28-4.50L397.28-4.50ZM451.73 0.45L451.73 0.45Q445.88 0.45 440.51-1.43L440.51-1.43L440.51-1.43Q435.15-3.30 432.23-6.38L432.23-6.38L434.40-10.65L434.40-10.65Q437.25-7.80 441.98-6.04L441.98-6.04L441.98-6.04Q446.70-4.27 451.73-4.27L451.73-4.27L451.73-4.27Q458.78-4.27 462.30-6.86L462.30-6.86L462.30-6.86Q465.83-9.45 465.83-13.57L465.83-13.57L465.83-13.57Q465.83-16.72 463.91-18.60L463.91-18.60L463.91-18.60Q462.00-20.47 459.23-21.49L459.23-21.49L459.23-21.49Q456.45-22.50 451.50-23.70L451.50-23.70L451.50-23.70Q445.58-25.20 442.05-26.59L442.05-26.59L442.05-26.59Q438.53-27.97 436.01-30.82L436.01-30.82L436.01-30.82Q433.50-33.67 433.50-38.55L433.50-38.55L433.50-38.55Q433.50-42.52 435.60-45.79L435.60-45.79L435.60-45.79Q437.70-49.05 442.05-51L442.05-51L442.05-51Q446.40-52.95 452.85-52.95L452.85-52.95L452.85-52.95Q457.35-52.95 461.66-51.71L461.66-51.71L461.66-51.71Q465.98-50.48 469.13-48.30L469.13-48.30L467.25-43.88L467.25-43.88Q463.95-46.05 460.20-47.14L460.20-47.14L460.20-47.14Q456.45-48.23 452.85-48.23L452.85-48.23L452.85-48.23Q445.95-48.23 442.46-45.56L442.46-45.56L442.46-45.56Q438.98-42.90 438.98-38.70L438.98-38.70L438.98-38.70Q438.98-35.55 440.89-33.64L440.89-33.64L440.89-33.64Q442.80-31.72 445.69-30.71L445.69-30.71L445.69-30.71Q448.58-29.70 453.45-28.50L453.45-28.50L453.45-28.50Q459.23-27.07 462.79-25.69L462.79-25.69L462.79-25.69Q466.35-24.30 468.83-21.49L468.83-21.49L468.83-21.49Q471.30-18.68 471.30-13.88L471.30-13.88L471.30-13.88Q471.30-9.90 469.16-6.64L469.16-6.64L469.16-6.64Q467.03-3.38 462.60-1.46L462.60-1.46L462.60-1.46Q458.18 0.45 451.73 0.45L451.73 0.45Z" fill="#000000"></path>
</g></g><style>text {
  font-size: 64px;
  font-family: Arial Black;
  dominant-baseline: central;
  text-anchor: middle;
}</style></svg>